<svg width="16" height="16" viewBox="0 0 16 16" fill="none" xmlns="http://www.w3.org/2000/svg">
<path d="M8.00485 2.06502C7.63715 2.06502 7.34017 2.362 7.34017 2.7297L7.33546 7.33532L2.72512 7.33532C2.35742 7.33532 2.06044 7.6323 2.06044 8C2.06044 8.3677 2.35742 8.66468 2.72512 8.66468L7.33546 8.66468L7.33546 13.275C7.33546 13.6427 7.63244 13.9397 8.00014 13.9397C8.36783 13.9397 8.66482 13.6427 8.66482 13.275L8.66482 8.66468H13.2752C13.6428 8.66468 13.9398 8.3677 13.9398 8C13.9398 7.6323 13.6428 7.33532 13.2752 7.33532H8.66482L8.66482 2.72498C8.66482 2.36672 8.36312 2.06502 8.00485 2.06502Z" fill="#748194"/>
</svg>
